<svg id="Hexels SVG Export" xmlns="http://www.w3.org/2000/svg" version="1.1" xmlns:xlink="http://www.w3.org/1999/xlink" viewBox="0 -0 384 384" xml:space="preserve">
<g id="Root" transform="matrix(1.000, 0.000, 0.000, 1.000, 0.000, -0.000)">
<g id="Layer 1" transform="matrix(1.000, 0.000, 0.000, 1.000, 0.000, -0.000)">
<path d="M 191.88,-0.00 L 63.96,128.00 L 95.94,160.00 L 191.88,64.00 L 191.88,-0.00  z" style="fill:#ffb000;fill-opacity:1.00"/>
<path d="M 191.88,-0.00 L 191.88,64.00 L 223.86,96.00 L 255.84,64.00 L 191.88,-0.00  z" style="fill:#ff9d00;fill-opacity:1.00"/>
<path d="M 255.84,64.00 L 223.86,96.00 L 319.80,192.00 L 319.80,128.00 L 255.84,64.00  z" style="fill:#ffb000;fill-opacity:1.00"/>
<path d="M 63.96,128.00 L 0.00,192.00 L 191.88,384.00 L 223.86,352.00 L 63.96,192.00 L 95.94,160.00 L 63.96,128.00  z" style="fill:#ffb900;fill-opacity:1.00"/>
<path d="M 191.88,128.00 L 127.92,192.00 L 191.88,256.00 L 191.88,128.00  z" style="fill:#ffb000;fill-opacity:1.00"/>
<path d="M 191.88,128.00 L 191.88,256.00 L 255.84,192.00 L 191.88,128.00  z" style="fill:#ff9400;fill-opacity:1.00"/>
<path d="M 319.80,128.00 L 319.80,192.00 L 287.82,224.00 L 319.80,256.00 L 383.76,192.00 L 319.80,128.00  z" style="fill:#ff9400;fill-opacity:1.00"/>
<path d="M 287.82,224.00 L 255.84,256.00 L 287.82,288.00 L 287.82,224.00  z" style="fill:#ff9400;fill-opacity:1.00"/>
<path d="M 287.82,224.00 L 287.82,288.00 L 319.80,256.00 L 287.82,224.00  z" style="fill:#ffb000;fill-opacity:1.00"/>
<path d="M 255.84,256.00 L 223.86,288.00 L 223.86,352.00 L 287.82,288.00 L 255.84,256.00  z" style="fill:#ffb000;fill-opacity:1.00"/>
<path d="M 223.86,288.00 L 191.88,320.00 L 223.86,352.00 L 223.86,288.00  z" style="fill:#ff9400;fill-opacity:1.00"/>
</g>
</g>
</svg>
